<?xml version="1.0" encoding="utf-8"?>
<!-- Generator: Adobe Illustrator 22.1.0, SVG Export Plug-In . SVG Version: 6.00 Build 0)  -->
<svg version="1.1" id="Layer_1" xmlns="http://www.w3.org/2000/svg" xmlns:xlink="http://www.w3.org/1999/xlink" x="0px" y="0px"
	 viewBox="0 0 32.3 32.7" style="enable-background:new 0 0 32.3 32.7;" xml:space="preserve">
<style type="text/css">
	.st0{fill:url(#SVGID_1_);}
	.st1{fill:#FFFFFF;}
</style>
<linearGradient id="SVGID_1_" gradientUnits="userSpaceOnUse" x1="-5.0085" y1="25.65" x2="46.8122" y2="25.65" gradientTransform="matrix(1 0 0 -1 0 42)">
	<stop  offset="0" style="stop-color:#5D4EEF"/>
	<stop  offset="1" style="stop-color:#7D5EFD"/>
</linearGradient>
<path class="st0" d="M28.3,32.7H4c-2.2,0-4-1.8-4-4.1V4.1C0,1.8,1.8,0,4,0h24.3c2.2,0,4,1.8,4,4.1v24.7
	C32.2,30.9,30.5,32.7,28.3,32.7z"/>
<g>
	<g>
		<path class="st1" d="M8.2,20.7c0-0.9,0.4-1.9,1.1-2.5l8.4-8.4c1-1,2.5-1.4,4-0.7C23.1,9.6,24,11,24,12.5v8.4c0,2-1.6,3.6-3.6,3.6
			H12c-1.5,0-2.8-0.8-3.4-2.3C8.4,21.6,8.2,21.1,8.2,20.7z"/>
	</g>
	<g>
		<path class="st1" d="M8.2,12.4c0-0.9,0.4-1.8,1.1-2.5c1.5-1.5,3.8-1.5,5.1,0l8.4,8.4c1.5,1.5,1.5,3.8,0,5.1
			c-1.5,1.5-3.8,1.5-5.1,0L9.2,15C8.6,14.2,8.2,13.4,8.2,12.4z"/>
	</g>
</g>
</svg>
