<?xml version="1.0" encoding="utf-8"?>
<!-- Generator: Adobe Illustrator 22.1.0, SVG Export Plug-In . SVG Version: 6.00 Build 0)  -->
<svg version="1.1" id="Layer_1" xmlns="http://www.w3.org/2000/svg" xmlns:xlink="http://www.w3.org/1999/xlink" x="0px" y="0px"
	 viewBox="0 0 233 41" style="enable-background:new 0 0 233 41;" xml:space="preserve">
<style type="text/css">
	.st0{fill:url(#SVGID_1_);}
	.st1{fill:#282B30;}
	.st2{fill:#FFFFFF;}
	.st3{fill:url(#SVGID_2_);}
	.st4{fill:url(#SVGID_3_);}
</style>
<linearGradient id="SVGID_1_" gradientUnits="userSpaceOnUse" x1="-5.0335" y1="25.65" x2="46.7872" y2="25.65" gradientTransform="matrix(1 0 0 -1 0 42)">
	<stop  offset="0" style="stop-color:#5D4EEF"/>
	<stop  offset="1" style="stop-color:#7D5EFD"/>
</linearGradient>
<path class="st0" d="M28.3,32.7H4c-2.2,0-4-1.8-4-4.1V4.1C0,1.8,1.8,0,4,0h24.3c2.2,0,4,1.8,4,4.1v24.7
	C32.2,30.9,30.5,32.7,28.3,32.7z"/>
<g>
	<path class="st1" d="M46.5,32c-0.5-0.5-0.7-1.2-0.7-2V3.4c0-0.9,0.3-1.6,0.8-2.1s1.2-0.8,2.1-0.8s1.6,0.3,2.2,0.8
		c0.5,0.5,0.7,1.2,0.7,2.1v24.5h12.8c1.8,0,2.7,0.8,2.7,2.4s-0.9,2.4-2.7,2.4H48.5C47.7,32.8,47,32.5,46.5,32z"/>
	<path class="st1" d="M70.8,5.2c-0.6-0.6-0.9-1.3-0.9-2.2s0.3-1.6,0.9-2.2C71.4,0.3,72.2,0,73.3,0c1,0,1.8,0.3,2.4,0.8
		s0.9,1.3,0.9,2.2s-0.3,1.6-0.9,2.2S74.3,6,73.2,6C72.3,6,71.5,5.8,70.8,5.2z M71.3,32.3c-0.5-0.5-0.8-1.1-0.8-2V12.8
		c0-0.9,0.3-1.5,0.8-2s1.2-0.7,2-0.7s1.5,0.2,2,0.7s0.8,1.1,0.8,2v17.5c0,0.9-0.3,1.6-0.8,2c-0.5,0.5-1.2,0.7-2,0.7
		S71.8,32.8,71.3,32.3z"/>
	<path class="st1" d="M99.9,11.4c1.5,0.9,2.6,2.3,3.5,4c0.8,1.7,1.2,3.7,1.2,6s-0.4,4.3-1.2,6.1c-0.8,1.8-2,3.1-3.5,4.1
		c-1.5,1-3.2,1.5-5.1,1.5c-1.6,0-3-0.3-4.3-1s-2.2-1.7-2.9-2.9v1.1c0,0.8-0.3,1.5-0.8,2s-1.2,0.7-2,0.7s-1.5-0.2-2-0.7
		s-0.8-1.1-0.8-2V3.1c0-0.8,0.3-1.4,0.8-1.9s1.2-0.7,2.1-0.7s1.5,0.2,2,0.7s0.8,1.1,0.8,1.9v10.7c0.7-1.2,1.6-2.1,2.9-2.8
		c1.2-0.7,2.7-1,4.2-1C96.7,10,98.5,10.5,99.9,11.4z M97.5,26.8c1-1.3,1.5-3.1,1.5-5.4s-0.5-4-1.5-5.2s-2.4-1.8-4.2-1.8
		c-1.8,0-3.2,0.6-4.2,1.8s-1.5,3-1.5,5.3s0.5,4.1,1.5,5.3s2.4,1.9,4.2,1.9C95.1,28.7,96.5,28.1,97.5,26.8z"/>
	<path class="st1" d="M128.2,27.3c0.3,0.4,0.5,0.9,0.5,1.6c0,0.9-0.6,1.7-1.7,2.4c-1,0.6-2.2,1-3.5,1.4c-1.3,0.3-2.5,0.5-3.7,0.5
		c-3.6,0-6.4-1-8.5-3.1s-3.1-4.9-3.1-8.5c0-2.3,0.5-4.3,1.4-6s2.2-3.1,3.8-4.1c1.7-1,3.5-1.5,5.6-1.5c2,0,3.7,0.4,5.2,1.3
		c1.5,0.9,2.6,2.1,3.5,3.7c0.8,1.6,1.2,3.5,1.2,5.7c0,1.3-0.6,2-1.7,2h-13.4c0.2,2.1,0.8,3.6,1.8,4.6s2.5,1.5,4.4,1.5
		c1,0,1.8-0.1,2.6-0.4c0.7-0.2,1.6-0.6,2.5-1c0.9-0.5,1.6-0.7,2-0.7C127.5,26.7,127.9,26.9,128.2,27.3z M115.4,15.4
		c-0.9,1-1.5,2.4-1.7,4.2H124c-0.1-1.8-0.5-3.2-1.4-4.2s-2-1.4-3.5-1.4C117.5,14,116.3,14.5,115.4,15.4z"/>
	<path class="st1" d="M147.8,10.6c0.5,0.4,0.7,1,0.7,1.8s-0.2,1.4-0.6,1.8c-0.4,0.4-1.1,0.7-2.1,0.8l-1.4,0.1
		c-1.8,0.2-3.1,0.8-3.9,1.8c-0.8,1-1.2,2.3-1.2,3.9v9.5c0,0.9-0.3,1.6-0.8,2c-0.5,0.5-1.2,0.7-2,0.7s-1.5-0.2-2-0.7s-0.8-1.1-0.8-2
		V12.7c0-0.8,0.3-1.5,0.8-2s1.2-0.7,2-0.7s1.4,0.2,1.9,0.7c0.5,0.4,0.7,1.1,0.7,1.9v1.8c0.6-1.3,1.4-2.4,2.6-3.1
		c1.1-0.7,2.4-1.1,3.8-1.2h0.6C146.7,10,147.3,10.2,147.8,10.6z"/>
	<path class="st1" d="M166.7,30.9c0,0.7-0.3,1.3-0.9,1.7c-0.6,0.4-1.4,0.5-2.5,0.5l-1.2-0.1c-5.1-0.4-7.6-3.1-7.6-8.2v-9.9h-2.3
		c-0.8,0-1.4-0.2-1.9-0.5c-0.4-0.4-0.7-0.9-0.7-1.6c0-0.7,0.2-1.2,0.7-1.6c0.4-0.4,1.1-0.5,1.9-0.5h2.3V6.4c0-0.8,0.3-1.5,0.8-2
		s1.2-0.7,2.1-0.7c0.8,0,1.5,0.2,2,0.7s0.8,1.1,0.8,2v4.2h3.9c0.8,0,1.4,0.2,1.9,0.5c0.4,0.4,0.7,0.9,0.7,1.6c0,0.7-0.2,1.2-0.7,1.6
		c-0.4,0.4-1.1,0.5-1.9,0.5h-3.9v10.3c0,2.2,1,3.4,3.1,3.6l1.2,0.1C166,28.9,166.7,29.6,166.7,30.9z"/>
	<path class="st1" d="M186.5,10.5c0.4-0.3,0.9-0.4,1.3-0.4c0.7,0,1.3,0.2,1.9,0.7c0.6,0.5,0.8,1.1,0.8,1.7c0,0.3-0.1,0.7-0.3,1
		l-12.4,26c-0.5,1-1.3,1.5-2.4,1.5c-0.7,0-1.3-0.2-1.8-0.7s-0.8-1-0.8-1.7c0-0.3,0.1-0.7,0.3-1.1l3.1-6.5l-8.5-17.6
		c-0.2-0.3-0.2-0.7-0.2-1c0-0.7,0.3-1.3,0.9-1.8c0.6-0.5,1.3-0.7,2-0.7c0.5,0,1,0.1,1.4,0.4c0.4,0.3,0.8,0.7,1,1.2l6.4,14l6.3-14
		C185.8,11.2,186.1,10.8,186.5,10.5z"/>
</g>
<g>
	<g>
		<path class="st2" d="M8.2,20.7c0-0.9,0.4-1.9,1.1-2.5l8.4-8.4c1-1,2.5-1.4,4-0.7C23.1,9.6,24,11,24,12.5v8.4c0,2-1.6,3.6-3.6,3.6
			H12c-1.5,0-2.8-0.8-3.4-2.3C8.3,21.6,8.2,21.1,8.2,20.7z"/>
	</g>
	<g>
		<path class="st2" d="M8.2,12.4c0-0.9,0.4-1.8,1.1-2.5c1.5-1.5,3.8-1.5,5.1,0l8.4,8.4c1.5,1.5,1.5,3.8,0,5.1
			c-1.5,1.5-3.8,1.5-5.1,0L9.2,15C8.6,14.2,8.2,13.4,8.2,12.4z"/>
	</g>
</g>
<linearGradient id="SVGID_2_" gradientUnits="userSpaceOnUse" x1="198.7415" y1="23.45" x2="287.235" y2="23.45" gradientTransform="matrix(1 0 0 -1 0 42)">
	<stop  offset="0" style="stop-color:#5D4EEF"/>
	<stop  offset="1" style="stop-color:#7D5EFD"/>
</linearGradient>
<path class="st3" d="M200.9,30.2c-2.1-2-3.1-5-3.1-8.9V6.5c0-0.7,0.2-1.4,0.7-1.9s1.1-0.7,1.9-0.7c0.7,0,1.4,0.2,1.9,0.7
	s0.7,1.1,0.7,1.9v15c0,2.5,0.6,4.3,1.7,5.6c1.2,1.2,2.9,1.9,5.2,1.9s3.9-0.7,5.1-1.9c1.2-1.2,1.7-3.2,1.7-5.6v-15
	c0-0.7,0.2-1.4,0.7-1.9s1.1-0.7,1.9-0.7c0.8,0,1.4,0.2,1.9,0.7s0.7,1.1,0.7,1.9v14.7c0,3.9-1,6.8-3.1,8.9s-5,3.1-8.9,3.1
	C205.9,33.2,202.9,32.2,200.9,30.2z"/>
<linearGradient id="SVGID_3_" gradientUnits="userSpaceOnUse" x1="198.7415" y1="23.5404" x2="287.235" y2="23.5404" gradientTransform="matrix(1 0 0 -1 0 42)">
	<stop  offset="0" style="stop-color:#5D4EEF"/>
	<stop  offset="1" style="stop-color:#7D5EFD"/>
</linearGradient>
<path class="st4" d="M228.5,32.3c-0.5-0.5-0.7-1.2-0.7-1.9V6.5c0-0.7,0.2-1.4,0.7-1.9s1.1-0.7,1.9-0.7c0.8,0,1.5,0.2,1.9,0.7
	c0.5,0.5,0.7,1.1,0.7,1.9v23.9c0,0.7-0.2,1.4-0.7,1.9s-1.1,0.7-1.9,0.7C229.7,33.1,229,32.8,228.5,32.3z"/>
</svg>
